# xmcd
# 
# Track frame offsets:
#     150
#     22225
#     45625
#     61925
#     79637
#     101930
#     123182
#     143957
#     165015
#     181185
#     210935
# 
# Disc length: 3073
# 
# Revision: 2
# Processed by: cddbd v1.5.2PL0 Copyright (c) Steve Scherf et al.
# Submitted via: BonkEnc v1.0
# 
DISCID=880bff0b
DTITLE=Jim Capaldi - Living on the outside
DYEAR=0
DGENRE=
TTITLE0=Living on the outside
TTITLE1=Standing in my light
TTITLE2=Anna Julia
TTITLE3=Time Passes
TTITLE4=Riding the storm
TTITLE5=We're not alone
TTITLE6=Heart of stone
TTITLE7=Love you 'til the day I die
TTITLE8=One man mission
TTITLE9=Good Lovin
TTITLE10=Daten-CD
EXTD=
EXTT0=
EXTT1=
EXTT2=
EXTT3=
EXTT4=
EXTT5=
EXTT6=
EXTT7=
EXTT8=
EXTT9=
EXTT10=
PLAYORDER=
